<!-- Cortina-abierta.svg -->

<svg width="300" height="263" viewBox="0 0 300 263" fill="none" xmlns="http://www.w3.org/2000/svg">
<g clip-path="url(#clip0_48_198)">
<path d="M20.0024 16.5329H279.997" stroke="#A16A4A" stroke-width="1.12782" stroke-miterlimit="10"/>
<path d="M11.25 23.1024C15.3921 23.1024 18.75 20.1611 18.75 16.5329C18.75 12.9046 15.3921 9.96334 11.25 9.96334C7.10786 9.96334 3.75 12.9046 3.75 16.5329C3.75 20.1611 7.10786 23.1024 11.25 23.1024Z" fill="#FFC49C"/>
<path d="M11.25 13.2481C13.32 13.2481 15 14.7197 15 16.5329C15 18.3461 13.32 19.8177 11.25 19.8177C9.18 19.8177 7.5 18.3461 7.5 16.5329C7.5 14.7197 9.18 13.2481 11.25 13.2481ZM11.25 6.67856C5.04 6.67856 0 11.0933 0 16.5329C0 21.9725 5.04 26.3872 11.25 26.3872C17.46 26.3872 22.5 21.9725 22.5 16.5329C22.5 11.0933 17.46 6.67856 11.25 6.67856Z" fill="#A16A4A"/>
<path d="M288.75 23.1024C292.892 23.1024 296.25 20.1611 296.25 16.5329C296.25 12.9046 292.892 9.96334 288.75 9.96334C284.608 9.96334 281.25 12.9046 281.25 16.5329C281.25 20.1611 284.608 23.1024 288.75 23.1024Z" fill="#FFC49C"/>
<path d="M288.75 13.2481C290.82 13.2481 292.5 14.7197 292.5 16.5329C292.5 18.3461 290.82 19.8177 288.75 19.8177C286.68 19.8177 285 18.3461 285 16.5329C285 14.7197 286.68 13.2481 288.75 13.2481ZM288.75 6.67856C282.54 6.67856 277.5 11.0933 277.5 16.5329C277.5 21.9725 282.54 26.3872 288.75 26.3872C294.96 26.3872 300 21.9725 300 16.5329C300 11.0933 294.96 6.67856 288.75 6.67856Z" fill="#A16A4A"/>
<path d="M273.656 253.037C272.497 253.037 271.565 251.401 270.89 248.175L270.453 246.086L270.016 248.169C269.341 251.401 268.41 253.037 267.25 253.037C266.09 253.037 265.159 251.401 264.484 248.175L264.047 246.086L263.61 248.169C262.935 251.401 262.003 253.037 260.844 253.037C258.708 253.037 257.856 247.407 257.641 245.626V16.5329H257.723C257.97 24.5806 258.76 42.8111 260.844 42.8111C262.927 42.8111 263.716 24.5806 263.965 16.5329H264.13C264.377 24.5806 265.168 42.8111 267.251 42.8111C269.335 42.8111 270.124 24.5806 270.372 16.5329H270.538C270.785 24.5806 271.576 42.8111 273.659 42.8111C275.742 42.8111 276.531 24.5806 276.78 16.5329H276.859V245.626C276.642 247.407 275.786 253.037 273.656 253.037Z" fill="#BAE0BD"/>
<path d="M270.453 29.107C271 37.6212 271.969 46.0959 273.656 46.0959C274.82 46.0959 275.641 42.0687 276.219 36.7802V46.0959V82.2284V216.904V236.613V244.595C275.959 246.257 275.225 249.752 273.656 249.752C272.663 249.752 271.879 248.412 271.327 245.771L270.453 241.592L269.579 245.771C269.027 248.412 268.243 249.752 267.25 249.752C266.257 249.752 265.473 248.412 264.921 245.771L264.047 241.592L263.173 245.771C262.621 248.412 261.837 249.752 260.844 249.752C259.26 249.752 258.54 246.316 258.281 244.614V236.613V216.904V82.2284V46.0959V36.7802C258.859 42.0687 259.68 46.0959 260.844 46.0959C262.531 46.0959 263.5 37.6212 264.047 29.107C264.594 37.6212 265.563 46.0959 267.25 46.0959C268.937 46.0959 269.906 37.6212 270.453 29.107ZM277.5 13.2481H276.219C276.219 13.2481 275.614 39.5263 273.656 39.5263C271.699 39.5263 271.094 13.2481 271.094 13.2481H269.813C269.813 13.2481 269.208 39.5263 267.25 39.5263C265.292 39.5263 264.688 13.2481 264.688 13.2481H263.406C263.406 13.2481 262.802 39.5263 260.844 39.5263C258.886 39.5263 258.281 13.2481 258.281 13.2481H257V46.0959V82.2284V216.904V236.613V246.467C257 246.467 257.88 256.321 260.844 256.321C262.493 256.321 263.481 253.28 264.047 250.573C264.613 253.28 265.601 256.321 267.25 256.321C268.899 256.321 269.887 253.28 270.453 250.573C271.019 253.28 272.007 256.321 273.656 256.321C276.619 256.321 277.5 246.467 277.5 246.467V236.613V216.904V82.2284V46.0959V13.2481Z" fill="#5E9C76"/>
<path d="M39.1562 253.037C37.9967 253.037 37.0652 251.401 36.39 248.175L35.9531 246.086L35.5162 248.169C34.841 251.401 33.9095 253.037 32.75 253.037C31.5905 253.037 30.659 251.401 29.9838 248.175L29.5469 246.086L29.11 248.175C28.4348 251.401 27.5033 253.037 26.3437 253.037C24.2079 253.037 23.3559 247.407 23.1406 245.626V16.5329H23.2226C23.4699 24.5806 24.2604 42.8111 26.3437 42.8111C28.4271 42.8111 29.2163 24.5806 29.4649 16.5329H29.6302C29.8774 24.5806 30.668 42.8111 32.7513 42.8111C34.8346 42.8111 35.6238 24.5806 35.8724 16.5329H36.0377C36.285 24.5806 37.0755 42.8111 39.1588 42.8111C41.2421 42.8111 42.0314 24.5806 42.2799 16.5329H42.3594V245.626C42.1416 247.407 41.2857 253.037 39.1562 253.037Z" fill="#BAE0BD"/>
<path d="M35.9531 29.107C36.5002 37.6212 37.4688 46.0959 39.1562 46.0959C40.3196 46.0959 41.1409 42.0687 41.7188 36.7802V46.0959V82.2284V216.904V236.613V244.595C41.4587 246.257 40.7245 249.752 39.1562 249.752C38.1633 249.752 37.3792 248.412 36.8269 245.771L35.9531 241.592L35.0793 245.771C34.5271 248.412 33.743 249.752 32.75 249.752C31.757 249.752 30.9729 248.412 30.4207 245.771L29.5469 241.592L28.6731 245.771C28.1208 248.412 27.3367 249.752 26.3438 249.752C24.7601 249.752 24.0401 246.316 23.7812 244.614V236.613V216.904V82.2284V46.0959V36.7802C24.3591 42.0687 25.1804 46.0959 26.3438 46.0959C28.0312 46.0959 28.9998 37.6212 29.5469 29.107C30.094 37.6212 31.0626 46.0959 32.75 46.0959C34.4374 46.0959 35.406 37.6212 35.9531 29.107ZM43 13.2481H41.7188C41.7188 13.2481 41.114 39.5263 39.1562 39.5263C37.1985 39.5263 36.5938 13.2481 36.5938 13.2481H35.3125C35.3125 13.2481 34.7078 39.5263 32.75 39.5263C30.7922 39.5263 30.1875 13.2481 30.1875 13.2481H28.9062C28.9062 13.2481 28.3015 39.5263 26.3438 39.5263C24.386 39.5263 23.7812 13.2481 23.7812 13.2481H22.5V46.0959V82.2284V216.904V236.613V246.467C22.5 246.467 23.3802 256.321 26.3438 256.321C27.9927 256.321 28.9806 253.28 29.5469 250.573C30.1132 253.28 31.101 256.321 32.75 256.321C34.399 256.321 35.3868 253.28 35.9531 250.573C36.5194 253.28 37.5073 256.321 39.1562 256.321C42.1185 256.321 43 246.467 43 246.467V236.613V216.904V82.2284V46.0959V13.2481Z" fill="#5E9C76"/>
<path d="M270 250V153" stroke="#5E9C76" stroke-width="1.12782" stroke-miterlimit="10"/>
<path d="M30 250V127" stroke="#5E9C76" stroke-width="1.12782" stroke-miterlimit="10"/>
<path d="M264 105V22" stroke="#5E9C76" stroke-width="1.12782" stroke-miterlimit="10"/>
<path d="M264 250V225" stroke="#5E9C76" stroke-width="1.12782" stroke-miterlimit="10"/>
<path d="M36 250V212" stroke="#5E9C76" stroke-width="1.12782" stroke-miterlimit="10"/>
<path d="M36 79V22" stroke="#5E9C76" stroke-width="1.12782" stroke-miterlimit="10"/>
</g>
<defs>
<clipPath id="clip0_48_198">
<rect width="300" height="262.782" fill="white" transform="translate(0 0.109024)"/>
</clipPath>
</defs>
</svg>
