<!-- cortina-entreabierta.svg -->

<svg width="300" height="263" viewBox="0 0 300 263" fill="none" xmlns="http://www.w3.org/2000/svg">
<g clip-path="url(#clip0_48_94)">
<path d="M20.0024 16.5329H279.997" stroke="#A16A4A" stroke-width="1.12782" stroke-miterlimit="10"/>
<path d="M11.25 23.1024C15.3921 23.1024 18.75 20.1611 18.75 16.5329C18.75 12.9046 15.3921 9.96334 11.25 9.96334C7.10786 9.96334 3.75 12.9046 3.75 16.5329C3.75 20.1611 7.10786 23.1024 11.25 23.1024Z" fill="#FFC49C"/>
<path d="M11.25 13.2481C13.32 13.2481 15 14.7197 15 16.5329C15 18.3461 13.32 19.8177 11.25 19.8177C9.18 19.8177 7.5 18.3461 7.5 16.5329C7.5 14.7197 9.18 13.2481 11.25 13.2481ZM11.25 6.67856C5.04 6.67856 0 11.0933 0 16.5329C0 21.9725 5.04 26.3872 11.25 26.3872C17.46 26.3872 22.5 21.9725 22.5 16.5329C22.5 11.0933 17.46 6.67856 11.25 6.67856Z" fill="#A16A4A"/>
<path d="M288.75 23.1024C292.892 23.1024 296.25 20.1611 296.25 16.5329C296.25 12.9046 292.892 9.96334 288.75 9.96334C284.608 9.96334 281.25 12.9046 281.25 16.5329C281.25 20.1611 284.608 23.1024 288.75 23.1024Z" fill="#FFC49C"/>
<path d="M288.75 13.2481C290.82 13.2481 292.5 14.7197 292.5 16.5329C292.5 18.3461 290.82 19.8177 288.75 19.8177C286.68 19.8177 285 18.3461 285 16.5329C285 14.7197 286.68 13.2481 288.75 13.2481ZM288.75 6.67856C282.54 6.67856 277.5 11.0933 277.5 16.5329C277.5 21.9725 282.54 26.3872 288.75 26.3872C294.96 26.3872 300 21.9725 300 16.5329C300 11.0933 294.96 6.67856 288.75 6.67856Z" fill="#A16A4A"/>
<path d="M265.219 253.037C261.514 253.037 258.538 251.401 256.38 248.175L254.984 246.086L253.588 248.169C251.431 251.401 248.455 253.037 244.75 253.037C241.045 253.037 238.069 251.401 235.912 248.175L234.516 246.086L233.12 248.169C230.962 251.401 227.986 253.037 224.281 253.037C217.457 253.037 214.735 247.407 214.047 245.626V16.5329H214.309C215.099 24.5806 217.625 42.8111 224.281 42.8111C230.938 42.8111 233.459 24.5806 234.254 16.5329H234.782C235.572 24.5806 238.098 42.8111 244.754 42.8111C251.411 42.8111 253.932 24.5806 254.726 16.5329H255.255C256.045 24.5806 258.57 42.8111 265.227 42.8111C271.883 42.8111 274.405 24.5806 275.199 16.5329H275.453V245.626C274.757 247.407 272.023 253.037 265.219 253.037Z" fill="#BAE0BD"/>
<path d="M254.984 29.107C256.732 37.6212 259.827 46.0959 265.219 46.0959C268.936 46.0959 271.56 42.0687 273.406 36.7802V46.0959V82.2284V216.904V236.613V244.595C272.575 246.257 270.23 249.752 265.219 249.752C262.046 249.752 259.541 248.412 257.776 245.771L254.984 241.592L252.192 245.771C250.428 248.412 247.923 249.752 244.75 249.752C241.577 249.752 239.072 248.412 237.308 245.771L234.516 241.592L231.724 245.771C229.959 248.412 227.454 249.752 224.281 249.752C219.221 249.752 216.921 246.316 216.094 244.614V236.613V216.904V82.2284V46.0959V36.7802C217.94 42.0687 220.564 46.0959 224.281 46.0959C229.673 46.0959 232.768 37.6212 234.516 29.107C236.264 37.6212 239.359 46.0959 244.75 46.0959C250.141 46.0959 253.236 37.6212 254.984 29.107ZM277.5 13.2481H273.406C273.406 13.2481 271.474 39.5263 265.219 39.5263C258.964 39.5263 257.031 13.2481 257.031 13.2481H252.938C252.938 13.2481 251.005 39.5263 244.75 39.5263C238.495 39.5263 236.563 13.2481 236.563 13.2481H232.469C232.469 13.2481 230.537 39.5263 224.281 39.5263C218.026 39.5263 216.094 13.2481 216.094 13.2481H212V46.0959V82.2284V216.904V236.613V246.467C212 246.467 214.812 256.321 224.281 256.321C229.55 256.321 232.706 253.28 234.516 250.573C236.325 253.28 239.481 256.321 244.75 256.321C250.019 256.321 253.175 253.28 254.984 250.573C256.794 253.28 259.95 256.321 265.219 256.321C274.684 256.321 277.5 246.467 277.5 246.467V236.613V216.904V82.2284V46.0959V13.2481Z" fill="#5E9C76"/>
<path d="M75.7187 253.037C72.0139 253.037 69.0377 251.401 66.8803 248.175L65.4844 246.086L64.0884 248.169C61.931 251.401 58.9548 253.037 55.25 253.037C51.5452 253.037 48.569 251.401 46.4116 248.175L45.0156 246.086L43.6197 248.175C41.4622 251.401 38.4861 253.037 34.7812 253.037C27.957 253.037 25.2346 247.407 24.5469 245.626V16.5329H24.8089C25.599 24.5806 28.1248 42.8111 34.7812 42.8111C41.4377 42.8111 43.9594 24.5806 44.7536 16.5329H45.2817C46.0718 24.5806 48.5977 42.8111 55.2541 42.8111C61.9105 42.8111 64.4323 24.5806 65.2265 16.5329H65.7546C66.5447 24.5806 69.0705 42.8111 75.7269 42.8111C82.3834 42.8111 84.9051 24.5806 85.6993 16.5329H85.9531V245.626C85.2572 247.407 82.5226 253.037 75.7187 253.037Z" fill="#BAE0BD"/>
<path d="M65.4844 29.107C67.2324 37.6212 70.3273 46.0959 75.7188 46.0959C79.4359 46.0959 82.06 42.0687 83.9062 36.7802V46.0959V82.2284V216.904V236.613V244.595C83.0752 246.257 80.7295 249.752 75.7188 249.752C72.5461 249.752 70.0407 248.412 68.2763 245.771L65.4844 241.592L62.6924 245.771C60.928 248.412 58.4227 249.752 55.25 249.752C52.0773 249.752 49.572 248.412 47.8076 245.771L45.0156 241.592L42.2237 245.771C40.4593 248.412 37.9539 249.752 34.7812 249.752C29.7214 249.752 27.4207 246.316 26.5938 244.614V236.613V216.904V82.2284V46.0959V36.7802C28.44 42.0687 31.0641 46.0959 34.7812 46.0959C40.1727 46.0959 43.2676 37.6212 45.0156 29.107C46.7637 37.6212 49.8585 46.0959 55.25 46.0959C60.6415 46.0959 63.7363 37.6212 65.4844 29.107ZM88 13.2481H83.9062C83.9062 13.2481 81.974 39.5263 75.7188 39.5263C69.4635 39.5263 67.5312 13.2481 67.5312 13.2481H63.4375C63.4375 13.2481 61.5052 39.5263 55.25 39.5263C48.9947 39.5263 47.0625 13.2481 47.0625 13.2481H42.9688C42.9688 13.2481 41.0365 39.5263 34.7812 39.5263C28.526 39.5263 26.5938 13.2481 26.5938 13.2481H22.5V46.0959V82.2284V216.904V236.613V246.467C22.5 246.467 25.3124 256.321 34.7812 256.321C40.0499 256.321 43.2062 253.28 45.0156 250.573C46.8251 253.28 49.9813 256.321 55.25 256.321C60.5187 256.321 63.6749 253.28 65.4844 250.573C67.2938 253.28 70.4501 256.321 75.7188 256.321C85.1835 256.321 88 246.467 88 246.467V236.613V216.904V82.2284V46.0959V13.2481Z" fill="#5E9C76"/>
<path d="M256 250V153" stroke="#5E9C76" stroke-width="1.12782" stroke-miterlimit="10"/>
<path d="M43 250V127" stroke="#5E9C76" stroke-width="1.12782" stroke-miterlimit="10"/>
<path d="M234 105V22" stroke="#5E9C76" stroke-width="1.12782" stroke-miterlimit="10"/>
<path d="M234 250V225" stroke="#5E9C76" stroke-width="1.12782" stroke-miterlimit="10"/>
<path d="M61 250V212" stroke="#5E9C76" stroke-width="1.12782" stroke-miterlimit="10"/>
<path d="M61 79V22" stroke="#5E9C76" stroke-width="1.12782" stroke-miterlimit="10"/>
</g>
<defs>
<clipPath id="clip0_48_94">
<rect width="300" height="262.782" fill="white" transform="translate(0 0.109024)"/>
</clipPath>
</defs>
</svg>
