<!-- cortina-base.svg -->

<svg width="300" height="263" viewBox="0 0 300 263" fill="none" xmlns="http://www.w3.org/2000/svg">
<g clip-path="url(#clip0_48_172)">
<path d="M20.0024 16.5329H279.997" stroke="#A16A4A" stroke-width="1.12782" stroke-miterlimit="10"/>
<path d="M11.25 23.1024C15.3921 23.1024 18.75 20.1611 18.75 16.5329C18.75 12.9046 15.3921 9.96334 11.25 9.96334C7.10786 9.96334 3.75 12.9046 3.75 16.5329C3.75 20.1611 7.10786 23.1024 11.25 23.1024Z" fill="#FFC49C"/>
<path d="M11.25 13.2481C13.32 13.2481 15 14.7197 15 16.5329C15 18.3461 13.32 19.8177 11.25 19.8177C9.18 19.8177 7.5 18.3461 7.5 16.5329C7.5 14.7197 9.18 13.2481 11.25 13.2481ZM11.25 6.67856C5.04 6.67856 0 11.0933 0 16.5329C0 21.9725 5.04 26.3872 11.25 26.3872C17.46 26.3872 22.5 21.9725 22.5 16.5329C22.5 11.0933 17.46 6.67856 11.25 6.67856Z" fill="#A16A4A"/>
<path d="M288.75 23.1024C292.892 23.1024 296.25 20.1611 296.25 16.5329C296.25 12.9046 292.892 9.96334 288.75 9.96334C284.608 9.96334 281.25 12.9046 281.25 16.5329C281.25 20.1611 284.608 23.1024 288.75 23.1024Z" fill="#FFC49C"/>
<path d="M288.75 13.2481C290.82 13.2481 292.5 14.7197 292.5 16.5329C292.5 18.3461 290.82 19.8177 288.75 19.8177C286.68 19.8177 285 18.3461 285 16.5329C285 14.7197 286.68 13.2481 288.75 13.2481ZM288.75 6.67856C282.54 6.67856 277.5 11.0933 277.5 16.5329C277.5 21.9725 282.54 26.3872 288.75 26.3872C294.96 26.3872 300 21.9725 300 16.5329C300 11.0933 294.96 6.67856 288.75 6.67856Z" fill="#A16A4A"/>
<!-- cortina derecha -->
<path d="M253.781 253.037C246.626 253.037 240.878 251.401 236.712 248.175L234.016 246.086L231.32 248.169C227.153 251.401 221.405 253.037 214.25 253.037C207.095 253.037 201.347 251.401 197.18 248.175L194.484 246.086L191.788 248.169C187.622 251.401 181.874 253.037 174.719 253.037C161.539 253.037 156.281 247.407 154.953 245.626V16.5329H155.459C156.985 24.5806 161.863 42.8111 174.719 42.8111C187.574 42.8111 192.445 24.5806 193.978 16.5329H194.998C196.524 24.5806 201.402 42.8111 214.258 42.8111C227.113 42.8111 231.984 24.5806 233.518 16.5329H234.537C236.063 24.5806 240.941 42.8111 253.797 42.8111C266.653 42.8111 271.523 24.5806 273.057 16.5329H273.547V245.626C272.203 247.407 266.921 253.037 253.781 253.037Z" fill="#BAE0BD"/>
<!--  -->
<path d="M234.016 29.107C237.392 37.6212 243.369 46.0959 253.781 46.0959C260.96 46.0959 266.028 42.0687 269.594 36.7802V46.0959V82.2284V216.904V236.613V244.595C267.989 246.257 263.459 249.752 253.781 249.752C247.654 249.752 242.815 248.412 239.408 245.771L234.016 241.592L228.624 245.771C225.216 248.412 220.377 249.752 214.25 249.752C208.123 249.752 203.284 248.412 199.876 245.771L194.484 241.592L189.092 245.771C185.685 248.412 180.846 249.752 174.719 249.752C164.947 249.752 160.503 246.316 158.906 244.614V236.613V216.904V82.2284V46.0959V36.7802C162.472 42.0687 167.54 46.0959 174.719 46.0959C185.131 46.0959 191.108 37.6212 194.484 29.107C197.86 37.6212 203.837 46.0959 214.25 46.0959C224.663 46.0959 230.64 37.6212 234.016 29.107ZM277.5 13.2481H269.594C269.594 13.2481 265.862 39.5263 253.781 39.5263C241.701 39.5263 237.969 13.2481 237.969 13.2481H230.063C230.063 13.2481 226.331 39.5263 214.25 39.5263C202.169 39.5263 198.438 13.2481 198.438 13.2481H190.531C190.531 13.2481 186.8 39.5263 174.719 39.5263C162.638 39.5263 158.906 13.2481 158.906 13.2481H151V46.0959V82.2284V216.904V236.613V246.467C151 246.467 156.432 256.321 174.719 256.321C184.894 256.321 190.99 253.28 194.484 250.573C197.979 253.28 204.075 256.321 214.25 256.321C224.425 256.321 230.521 253.28 234.016 250.573C237.51 253.28 243.606 256.321 253.781 256.321C272.061 256.321 277.5 246.467 277.5 246.467V236.613V216.904V82.2284V46.0959V13.2481Z" fill="#5E9C76"/>
<path d="M125.281 253.037C118.126 253.037 112.378 251.401 108.212 248.175L105.516 246.086L102.82 248.169C98.653 251.401 92.9052 253.037 85.75 253.037C78.5948 253.037 72.847 251.401 68.6804 248.175L65.9844 246.086L63.2883 248.175C59.1217 251.401 53.3739 253.037 46.2187 253.037C33.039 253.037 27.7814 247.407 26.4531 245.626V16.5329H26.9591C28.485 24.5806 33.3632 42.8111 46.2187 42.8111C59.0743 42.8111 63.9446 24.5806 65.4784 16.5329H66.4983C68.0242 24.5806 72.9023 42.8111 85.7579 42.8111C98.6135 42.8111 103.484 24.5806 105.018 16.5329H106.037C107.563 24.5806 112.441 42.8111 125.297 42.8111C138.153 42.8111 143.023 24.5806 144.557 16.5329H145.047V245.626C143.703 247.407 138.421 253.037 125.281 253.037Z" fill="#BAE0BD"/>
<path d="M105.516 29.107C108.892 37.6212 114.869 46.0959 125.281 46.0959C132.46 46.0959 137.528 42.0687 141.094 36.7802V46.0959V82.2284V216.904V236.613V244.595C139.489 246.257 134.958 249.752 125.281 249.752C119.154 249.752 114.315 248.412 110.908 245.771L105.516 241.592L100.124 245.771C96.716 248.412 91.8773 249.752 85.75 249.752C79.6227 249.752 74.784 248.412 71.3764 245.771L65.9844 241.592L60.5923 245.771C57.1847 248.412 52.3461 249.752 46.2188 249.752C36.4466 249.752 32.0033 246.316 30.4062 244.614V236.613V216.904V82.2284V46.0959V36.7802C33.972 42.0687 39.0399 46.0959 46.2188 46.0959C56.6313 46.0959 62.6084 37.6212 65.9844 29.107C69.3603 37.6212 75.3375 46.0959 85.75 46.0959C96.1625 46.0959 102.14 37.6212 105.516 29.107ZM149 13.2481H141.094C141.094 13.2481 137.362 39.5263 125.281 39.5263C113.201 39.5263 109.469 13.2481 109.469 13.2481H101.562C101.562 13.2481 97.8307 39.5263 85.75 39.5263C73.6693 39.5263 69.9375 13.2481 69.9375 13.2481H62.0312C62.0312 13.2481 58.2995 39.5263 46.2188 39.5263C34.138 39.5263 30.4062 13.2481 30.4062 13.2481H22.5V46.0959V82.2284V216.904V236.613V246.467C22.5 246.467 27.9316 256.321 46.2188 256.321C56.3941 256.321 62.4898 253.28 65.9844 250.573C69.4789 253.28 75.5747 256.321 85.75 256.321C95.9253 256.321 102.021 253.28 105.516 250.573C109.01 253.28 115.106 256.321 125.281 256.321C143.561 256.321 149 246.467 149 246.467V236.613V216.904V82.2284V46.0959V13.2481Z" fill="#5E9C76"/>
<path d="M234 250V153" stroke="#5E9C76" stroke-width="1.12782" stroke-miterlimit="10"/>
<path d="M66 250V127" stroke="#5E9C76" stroke-width="1.12782" stroke-miterlimit="10"/>
<path d="M194 105V22" stroke="#5E9C76" stroke-width="1.12782" stroke-miterlimit="10"/>
<path d="M194 250V225" stroke="#5E9C76" stroke-width="1.12782" stroke-miterlimit="10"/>
<path d="M106 250V212" stroke="#5E9C76" stroke-width="1.12782" stroke-miterlimit="10"/>
<path d="M106 79V22" stroke="#5E9C76" stroke-width="1.12782" stroke-miterlimit="10"/>
</g>
<defs>
<clipPath id="clip0_48_172">
<rect width="300" height="262.782" fill="white" transform="translate(0 0.109024)"/>
</clipPath>
</defs>
</svg>
